<svg width="24" height="24" viewBox="0 0 24 24" fill="none" xmlns="http://www.w3.org/2000/svg">
<path fill-rule="evenodd" clip-rule="evenodd" d="M1.50012 11.9991C1.50012 12.198 1.57914 12.3887 1.71979 12.5294C1.86045 12.67 2.05121 12.7491 2.25012 12.7491L19.9396 12.7491L15.2191 17.4681C15.1494 17.5378 15.0941 17.6206 15.0563 17.7117C15.0186 17.8028 14.9992 17.9004 14.9992 17.9991C14.9992 18.0977 15.0186 18.1953 15.0563 18.2864C15.0941 18.3775 15.1494 18.4603 15.2191 18.5301C15.2889 18.5998 15.3716 18.6551 15.4627 18.6928C15.5539 18.7306 15.6515 18.75 15.7501 18.75C15.8487 18.75 15.9464 18.7306 16.0375 18.6928C16.1286 18.6551 16.2114 18.5998 16.2811 18.5301L22.2811 12.5301C22.351 12.4604 22.4064 12.3776 22.4442 12.2865C22.482 12.1954 22.5015 12.0977 22.5015 11.9991C22.5015 11.9004 22.482 11.8027 22.4442 11.7116C22.4064 11.6205 22.351 11.5377 22.2811 11.4681L16.2811 5.46805C16.2114 5.39832 16.1286 5.34301 16.0375 5.30527C15.9464 5.26753 15.8487 5.24811 15.7501 5.24811C15.6515 5.24811 15.5539 5.26753 15.4627 5.30527C15.3716 5.34301 15.2889 5.39832 15.2191 5.46805C15.1494 5.53778 15.0941 5.62057 15.0563 5.71168C15.0186 5.80279 14.9992 5.90044 14.9992 5.99905C14.9992 6.09767 15.0186 6.19532 15.0563 6.28643C15.0941 6.37754 15.1494 6.46032 15.2191 6.53005L19.9396 11.2491L2.25012 11.2491C2.05121 11.2491 1.86045 11.3281 1.71979 11.4687C1.57914 11.6094 1.50012 11.8001 1.50012 11.9991Z" fill="#B4B4B4"/>
</svg>
