<svg width="72" height="90" viewBox="0 0 72 90" fill="none" xmlns="http://www.w3.org/2000/svg">
<g opacity="0.499">
<path opacity="0.499" d="M22.4028 90.001H3.82422V65.4375H22.4028V69.9279H8.46916V75.5773H21.9065V79.8932H8.46916V85.4379H22.4032L22.4028 90.001Z" fill="#BDBDBD"/>
<path opacity="0.499" d="M37.7207 82.769H30.7006V89.997H26.0205V65.4339C29.9202 65.4339 33.8206 65.3984 37.7207 65.3984C49.8465 65.4004 49.882 82.769 37.7207 82.769ZM30.7006 78.5226H37.7207C43.7134 78.5226 43.6782 69.8198 37.7207 69.8198H30.7006V78.5226Z" fill="#BDBDBD"/>
<path opacity="0.499" d="M65.3409 65.4375H70.4814V65.648L62.0776 77.5789L70.7291 89.8608V90.001H65.4817L59.1351 80.7729L52.7889 90.001H47.5415V89.8608L56.1563 77.5789L47.7889 65.648V65.4375H52.9298L59.1351 74.5961L65.3409 65.4375Z" fill="#BDBDBD"/>
</g>
<g opacity="0.499">
<path opacity="0.499" d="M67.514 26.0096L59.5048 18.083L57.5025 16.101L55.1459 13.7691L53.1436 11.787L45.1305 3.8569C42.6289 1.38705 39.2396 0 35.706 0C32.1725 0 28.7832 1.38705 26.2816 3.8569L18.2724 11.7855L16.2693 13.7675L13.9115 16.0994L11.9092 18.0814L3.89729 26.01C1.40158 28.4858 0 31.8402 0 35.3374C0 38.8346 1.40158 42.189 3.89729 44.6648L11.9092 52.5938L16.2678 56.9077L18.2708 58.8898L19.2722 57.8988L20.2735 56.9077L22.6297 54.5758L23.6311 53.5848L24.6324 52.5938L35.706 41.634L46.7797 52.5942L47.781 53.5852L48.7827 54.5762L51.1389 56.9077L52.1403 57.8988L53.1416 58.8898L55.1447 56.9077L57.5013 54.5754L59.5036 52.5938L67.5128 44.6672C70.0098 42.1916 71.4124 38.8366 71.4126 35.3386C71.4128 31.8407 70.0107 28.4855 67.514 26.0096V26.0096ZM55.4975 52.5938L53.142 54.9249L50.785 52.5938L37.7091 39.6527L36.7078 38.6617L35.706 37.6703L34.7047 38.6613L33.7034 39.6523L20.6278 52.5938L18.2712 54.9257L15.9135 52.5938L18.2697 50.2619L31.346 37.3208L32.3477 36.3298L33.3487 35.3376L32.3469 34.3466L31.346 33.356L25.8105 27.8757L18.2708 20.4133L17.2691 21.4044L16.2678 22.3954L8.25855 30.322C6.91699 31.6527 6.16356 33.4557 6.16356 35.3355C6.16356 37.2152 6.91699 39.0183 8.25855 40.3489L16.2678 48.2783L13.9115 50.6094L5.90235 42.6828C3.93678 40.7332 2.8329 38.0915 2.8329 35.3374C2.8329 32.5833 3.93678 29.9417 5.90235 27.992L13.9115 20.0654L14.9137 19.0725L15.9146 18.0814L19.2726 14.7585L20.2735 13.7675L28.2847 5.84089C30.2547 3.89569 32.9239 2.80326 35.7066 2.80326C38.4894 2.80326 41.1586 3.89569 43.1286 5.84089L51.1397 13.7675L48.7843 16.0994L40.7724 8.1728C39.4279 6.845 37.6062 6.09928 35.7068 6.09928C33.8075 6.09928 31.9857 6.845 30.6413 8.1728L22.6321 16.0994L21.6308 17.0904L20.6267 18.0814L33.703 31.0229L34.7043 32.0139L35.706 33.0049L36.7074 32.0139L37.7091 31.0229L50.7854 18.0814L53.1428 15.7491L56.5004 19.0721L57.5013 20.0627L65.5105 27.9893C67.4761 29.9389 68.58 32.5806 68.58 35.3347C68.58 38.0888 67.4761 40.7305 65.5105 42.6801L57.5013 50.609L56.5 51.6L55.4975 52.5938ZM29.3452 35.3376L18.2708 46.2974L10.2581 38.3689C9.44705 37.5642 8.99159 36.474 8.99159 35.3374C8.99159 34.2008 9.44705 33.1107 10.2581 32.306L18.2673 24.3794L29.3452 35.3376ZM46.7801 18.0818L35.706 29.0428L24.6324 18.083L32.6432 10.1521C33.4562 9.34946 34.5577 8.8987 35.706 8.8987C36.8544 8.8987 37.9559 9.34946 38.7689 10.1521L46.7801 18.0818Z" fill="#BDBDBD"/>
<path opacity="0.499" d="M63.156 30.3227L55.1468 22.3961L54.1451 21.4051L53.1449 20.4141L40.0686 33.3552L39.0673 34.3465L38.0659 35.3376L39.0673 36.3286L40.0682 37.3157L53.1445 50.2579L54.1455 49.2669L55.1472 48.2759L63.1564 40.3474C64.4969 39.0166 65.2496 37.214 65.2495 35.3349C65.2495 33.4558 64.4966 31.6534 63.156 30.3227ZM53.143 24.3766L61.1522 32.3032C61.9631 33.1079 62.4185 34.198 62.4185 35.3345C62.4185 36.4709 61.9631 37.561 61.1522 38.3657L53.1434 46.2966L42.0689 35.3372L53.143 24.3766Z" fill="#BDBDBD"/>
</g>
</svg>
